<svg width="60" height="60" fill="none" xmlns="http://www.w3.org/2000/svg"><g opacity="1"><path d="M11.25 0h37.5C54.964 0 60 5.036 60 11.25v37.5C60 54.964 54.964 60 48.75 60h-37.5C5.036 60 0 54.964 0 48.75v-37.5C0 5.036 5.036 0 11.25 0z" fill="#000"/><path d="M23.75 30c0-.25.075-.5.212-.688l6.25-9.375a1.24 1.24 0 011.036-.563h3.75c.688 0 1.251.563 1.251 1.251 0 .25-.075.5-.212.688L30.25 30l5.788 8.687c.137.187.212.437.212.688 0 .688-.563 1.25-1.25 1.25h-3.75a1.24 1.24 0 01-1.037-.562l-6.25-9.375A1.186 1.186 0 0123.75 30z" fill="#fff"/></g></svg>