<svg width="60" height="60" fill="none" xmlns="http://www.w3.org/2000/svg"><g opacity="1"><path d="M48.75 60h-37.5C5.036 60 0 54.964 0 48.75v-37.5C0 5.036 5.036 0 11.25 0h37.5C54.964 0 60 5.036 60 11.25v37.5C60 54.964 54.964 60 48.75 60z" fill="#000"/><path d="M36.25 30c0 .25-.075.5-.212.688l-6.25 9.375a1.24 1.24 0 01-1.036.563h-3.75a1.255 1.255 0 01-1.251-1.251c0-.25.075-.5.212-.688L29.75 30l-5.788-8.687a1.181 1.181 0 01-.212-.688c0-.688.563-1.25 1.25-1.25h3.75c.437 0 .813.224 1.037.562l6.25 9.375c.137.187.212.438.212.688z" fill="#fff"/></g></svg>